<svg aria-hidden="true" class="h-3.5 w-3.5 rounded-full mr-2" xmlns="http://www.w3.org/2000/svg" viewBox="0 0 512 512">
                        <path fill="#b22234" d="M0 0h512v512H0z"/>
                        <path fill="#fff" d="M0 38.4h512v38.4H0zm0 76.8h512v38.4H0zm0 76.8h512v38.4H0zm0 76.8h512v38.4H0zm0 76.8h512v38.4H0zm0 76.8h512v38.4H0z"/>
                        <path fill="#3c3b6e" d="M0 0h256v192H0z"/>
                        <g fill="#fff">
                            <path d="M19.2 26.6l6.1 18.8h19.8l-16 11.6 6.1 18.8-16-11.6-16 11.6 6.1-18.8-16-11.6h19.8z"/>
                            <path d="M57.6 26.6l6.1 18.8h19.8l-16 11.6 6.1 18.8-16-11.6-16 11.6 6.1-18.8-16-11.6h19.8z"/>
                            <path d="M96 26.6l6.1 18.8h19.8l-16 11.6 6.1 18.8-16-11.6-16 11.6 6.1-18.8-16-11.6h19.8z"/>
                        </g>
                    </svg>